<?xml version="1.0" standalone="no"?>
<!DOCTYPE svg PUBLIC "-//W3C//DTD SVG 1.1//EN" "http://www.w3.org/Graphics/SVG/1.1/DTD/svg11.dtd" >
<!--
2013-9-30: Created.
-->
<svg>
<metadata>
Created by iconfont
</metadata>
<defs>

<font id="iconfont" horiz-adv-x="1024" >
  <font-face
    font-family="iconfont"
    font-weight="500"
    font-stretch="normal"
    units-per-em="1024"
    ascent="896"
    descent="-128"
  />
    <missing-glyph />
    
    <glyph glyph-name="Facebooklogo" unicode="&#59058;" d="M876.085248 820.90666667H147.914752C107.872256 820.90666667 75.09333333 788.127744 75.09333333 748.085248v-728.18141867C75.09333333-20.116821329999993 107.872256-52.90666667000005 147.914752-52.90666667000005h728.170496C916.127744-52.90666667000005 948.90666667-20.116821329999993 948.90666667 19.903829330000008V748.085248C948.90666667 788.127744 916.127744 820.90666667 876.085248 820.90666667z m0-801.00283734H584.82141867V311.18950400000006h182.03716266V384H584.82141867v72.82141867c0 60.33681067 48.922624 109.22666667 109.22666666 109.22666666h72.810496v72.82141867h-72.810496C593.526784 638.85858133 512 557.38641067 512 456.82141867V384h-72.82141867v-72.810496H512v-291.28567467H147.914752V748.085248h728.170496v-728.18141867z"  horiz-adv-x="1024" />

    
    <glyph glyph-name="caidan" unicode="&#58922;" d="M905.848832 189.44c22.84544 0 41.744384-18.75968 41.744384-41.603072 0-23.6032-18.898944-42.364928-41.744384-42.364928L301.010944 105.472c-22.833152 0-41.728 18.75968-41.728 42.364928 0 22.843392 18.896896 41.603072 41.728 41.603072L905.848832 189.44zM139.56096 680.511488c29.927424 0 53.557248-24.406016 53.557248-53.54496 0-29.927424-23.631872-53.559296-53.557248-53.559296C110.422016 573.407232 86.016 597.039104 86.016 626.966528 86.016 656.105472 110.422016 680.511488 139.56096 680.511488L139.56096 680.511488zM301.010944 578.56c-22.833152 0-41.728 19.13856-41.728 41.984s18.896896 41.984 41.728 41.984l604.837888 0c22.84544 0 41.744384-19.13856 41.744384-41.984s-18.898944-41.984-41.744384-41.984L301.010944 578.56zM301.010944 326.656c-22.833152 0-41.728 19.140608-41.728 41.984s18.896896 41.984 41.728 41.984l604.837888 0c22.84544 0 41.744384-19.140608 41.744384-41.984s-18.898944-41.984-41.744384-41.984L301.010944 326.656zM139.56096 437.164032c29.927424 0 53.557248-23.63392 53.557248-53.557248 0-29.140992-23.631872-53.557248-53.557248-53.557248C110.422016 330.049536 86.016 354.465792 86.016 383.606784 86.016 413.53216 110.422016 437.164032 139.56096 437.164032L139.56096 437.164032zM139.56096 194.592768c29.927424 0 53.557248-24.420352 53.557248-53.559296 0-29.925376-23.631872-53.54496-53.557248-53.54496C110.422016 87.488512 86.016 111.106048 86.016 141.031424 86.016 170.172416 110.422016 194.592768 139.56096 194.592768L139.56096 194.592768z"  horiz-adv-x="1024" />

    
    <glyph glyph-name="duihao" unicode="&#58884;" d="M75.712 450.288l240.176-185.52s13.248-6.624 29.808 0l591.36 493.872s84.272 17.968 68.64-71.488c-57.04-57.968-638.464-617.856-638.464-617.856s-38.096-21.536-74.544 0C256.272 105.744 12.816 372.432 12.816 372.432s-6.672 64.592 62.896 77.856z"  horiz-adv-x="1024" />

    
    <glyph glyph-name="dianhua1" unicode="&#58914;" d="M959.642 487.374c-73.288-104.495-155.131-5.369-173.587 24.565-18.443 29.94-136.736 145.232-272.766 145.232-161.238 0-255.743-119.232-274.294-149.61-18.55-30.385-100.854-130.985-174.55-24.94C37.03 516.04-13.289 806.08 513.288 806.788c523.65-0.697 473.615-286.49 446.353-319.414zM513.289 756.918c-478.905 0-419.637-223.757-398.97-249.358 35.53-44.015 67.09 6.713 99.742 49.868 23.808 31.475 131.924 150.713 299.228 150.713 140.863 0 275.757-120.075 297.57-147.055 28.934-35.793 72.495-92.269 99.187-49.142 19.257 26.096 77.803 244.974-396.757 244.974z m0-149.615c216.696 0 374.04-333.773 374.04-498.718 0-147.41-48.444-149.616-374.04-149.616-325.577 0-374.036 2.217-374.036 149.616 0 160.88 156.99 498.718 374.036 498.718z m0-598.46c282.187 0 324.166 1.848 324.166 125.677 0 112.348-136.363 422.908-324.166 422.908-188.107 0-324.162-312.61-324.162-422.908-0.005-123.818 41.994-125.676 324.162-125.676z m0 448.844c68.859 0 124.68-55.824 124.68-124.678 0-68.858-55.821-124.68-124.68-124.68s-124.677 55.822-124.677 124.68c0 68.854 55.818 124.678 124.677 124.678z m0-199.485c41.318 0 74.807 33.49 74.807 74.807 0 41.313-33.49 74.804-74.807 74.804-41.313 0-74.81-33.49-74.81-74.804 0-41.318 33.497-74.807 74.81-74.807z m0 0"  horiz-adv-x="1024" />

    
    <glyph glyph-name="whatsapp" unicode="&#59226;" d="M636.013714 339.419429c9.728 0 102.838857-48.566857 106.861715-55.442286 1.133714-2.852571 1.133714-6.290286 1.133714-8.557714 0-14.299429-4.571429-30.281143-9.728-43.446858-13.129143-32-66.304-52.553143-98.852572-52.553142-27.428571 0-84.004571 23.990857-108.580571 35.437714-81.700571 37.156571-132.571429 100.571429-181.723429 173.129143-21.723429 32-41.142857 71.424-40.557714 110.848v4.571428c1.133714 37.705143 14.848 64.585143 42.276572 90.294857 8.557714 8.009143 17.700571 12.580571 29.696 12.580572 6.838857 0 13.714286-1.718857 21.138285-1.718857 15.433143 0 18.285714-4.571429 23.990857-19.419429 3.986286-9.728 33.133714-87.442286 33.133715-93.147428 0-21.723429-39.424-46.299429-39.424-59.428572 0-2.852571 1.133714-5.705143 2.852571-8.557714 12.580571-26.843429 36.571429-57.709714 58.294857-78.299429 26.294857-25.161143 54.272-41.728 86.272-57.709714a24.905143 24.905143 0 0 1 12.580572-3.986286c17.152 0 45.714286 55.442286 60.562285 55.442286zM520.009143 36.571429c197.705143 0 358.838857 161.133714 358.838857 358.838857s-161.133714 358.838857-358.838857 358.838857-358.838857-161.133714-358.838857-358.838857c0-75.446857 23.990857-149.138286 68.571428-210.285715l-45.129143-133.156571 138.276572 43.995429a361.142857 361.142857 0 0 1 197.156571-59.428572z m0 789.723428C757.723429 826.294857 950.857143 633.161143 950.857143 395.446857s-193.133714-430.848-430.848-430.848c-72.557714 0-144.566857 18.285714-208.566857 53.723429L73.142857-58.258286l77.714286 231.424a428.909714 428.909714 0 0 0-61.696 222.281143c0 237.714286 193.133714 430.848 430.848 430.848z"  horiz-adv-x="1024" />

    
    <glyph glyph-name="shangjiantou" unicode="&#59026;" d="M946.09179688 226.67578125c9.84375-9.84375 14.67773438-22.67578125 14.67773437-35.59570313 0-12.83203125-4.83398438-25.75195313-14.67773438-35.59570312-19.59960938-19.59960938-51.41601563-19.59960938-71.01562499 0L511.47265625 519.26367188 147.78125 155.74804687000005c-19.59960938-19.59960938-51.41601563-19.59960938-71.015625 1e-8-19.59960938 19.59960938-19.59960938 51.41601563 0 71.015625L454.60742187 604.60546875c15.20507813 15.20507813 35.33203125 23.46679688 56.86523438 23.46679688s41.66015625-8.34960938 56.86523438-23.46679688l377.75390624-377.9296875z m-1e-8 0"  horiz-adv-x="1024" />

    
    <glyph glyph-name="kefu" unicode="&#58881;" d="M205.8 549c42.4 133.9 167.8 231.2 315.6 231.2 147.7 0 273.1-97.3 315.6-231.2h55C847.8 712.4 698.4 833 521.3 833c-177 0-326.4-120.6-370.5-284h55zM185.1 187.2h-1.4c-79.6 0-144.3 64.7-144.3 144.3v82.8c0 79.6 64.7 144.3 144.3 144.3h1.3c38.8 0 70.3-31.5 70.3-70.3v-230.9c0-38.7-31.5-70.2-70.2-70.2z m-1.4 315.7c-48.8 0-88.5-39.7-88.5-88.5v-82.8c0-48.8 39.7-88.5 88.5-88.5h1.4c7.9 0 14.4 6.5 14.4 14.4V488.4c0 8-6.5 14.5-14.5 14.5h-1.3zM855.5 187.2h-1.4c-38.7 0-70.2 31.5-70.2 70.2v231c0 38.8 31.5 70.3 70.3 70.3h1.3c79.6 0 144.3-64.7 144.3-144.3v-82.8c0.1-79.6-64.7-144.4-144.3-144.4z m-1.3 315.7c-8 0-14.5-6.5-14.5-14.5v-230.9c0-7.9 6.5-14.4 14.4-14.4h1.4c48.8 0 88.5 39.7 88.5 88.5v82.8c0 48.8-39.7 88.5-88.5 88.5h-1.3zM569.7 37.5h-5.1c-15.4 0.2-27.7 12.9-27.5 28.3 0.2 15.3 12.7 27.5 27.9 27.5h0.4c165.4-2.4 264.9 136.4 265.9 137.8 8.9 12.6 26.3 15.6 38.9 6.8 12.6-8.8 15.7-26.2 6.9-38.8-4.8-6.6-115.3-161.6-307.4-161.6z"  horiz-adv-x="1024" />

    
    <glyph glyph-name="fuwu" unicode="&#58887;" d="M228.68010313 826.52368411c-71.22274645-15.44905149-143.10011501-87.32641867-158.5491665-158.54916651-29.58886151-136.9466782 73.84123075-257.92060859 205.68186613-257.92060859l210.78790895 0 0 8.9028428 0 43.46682408L486.60071171 629.87558517l-0.26184883 0C481.10189701 757.26479985 362.61552513 855.4579249 228.68010313 826.52368411zM434.23104483 462.42357589l-158.41824207 0c-88.24288826 0-159.59655913 72.13921603-158.41824208 160.64395312 1.17831705 85.36255648 70.82997456 155.01421401 156.19253104 156.19253103 88.5047371 1.17831705 160.64395313-70.17535383 160.64395311-158.41824207L434.23104483 462.42357589zM954.78553295 667.9745176c-15.44905149 71.22274645-87.32641867 143.10011501-158.54916651 158.54916651-133.80449895 28.93424079-252.42179389-69.25888426-257.65876112-196.77902335l-0.26184883 0 0-167.32108487 0-43.46682408 0-8.9028428 210.78790895 0C880.81337777 410.05390901 984.37439449 531.0278394100001 954.78553295 667.9745176zM590.68542474 620.84181797c0 88.24288826 72.13921603 159.59655913 160.64395312 158.41824207 85.36255648-1.17831705 155.01421401-70.82997456 156.19253104-156.19253103 1.17831705-88.5047371-70.17535383-160.64395313-158.41824207-160.64395312l-158.41824209 0L590.68542474 620.84181797zM70.13093663 99.76363356000002c15.44905149-71.22274645 87.32641867-143.10011501 158.5491665-158.54916651 133.80449895-28.93424079 252.42179389 69.25888426 257.65876113 196.77902335l0.26184884 0L486.60071171 305.31457525999997l0 43.4668241 0 8.90284278-210.78790895 0C143.97216738 357.68424214000004 40.5420751 236.71031174999996 70.13093663 99.76363356000002zM434.23104483 146.89633317000005c0-88.24288826-72.13921603-159.59655913-160.64395311-158.41824207-85.36255648 1.17831705-155.01421401 70.82997456-156.19253104 156.19253104-1.17831705 88.5047371 70.17535383 160.64395313 158.41824208 160.64395312l158.41824207 0L434.23104483 146.89633317000005zM749.10366683 357.68424214000004l-210.78790897 0 0-8.90284278 0-43.4668241 0-167.32108486 0.26184884 0c5.36789028-127.52013909 123.85426217-225.71326414 257.65876113-196.77902335 71.22274645 15.44905149 143.10011501 87.32641867 158.54916651 158.54916651C984.37439449 236.71031174999996 880.81337777 357.68424214000004 749.10366683 357.68424214000004zM907.5219089 144.67062352999994C906.34359046 59.30806566000001 836.69193434-10.343590459999973 751.32937647-11.521908899999971c-88.5047371-1.17831705-160.64395313 70.17535383-160.64395312 158.41824207l0 158.41824209 158.41824209 0C837.34655506 305.31457525999997 908.70022594 233.17535925000004 907.5219089 144.67062352999994z"  horiz-adv-x="1024" />

    
    <glyph glyph-name="chanpin1" unicode="&#58959;" d="M508.885 814.222c14.99 0 29.568-2.944 39.993-8.078l287.389-141.44c4.565-2.247 15.189-8.42 15.246-17.266 0.043-6.329-5.845-13.113-15.744-18.133l-290.432-147.47c-11.193-5.69-26.766-8.946-42.71-8.946-14.99 0-29.567 2.944-39.992 8.078l-287.403 141.44c-4.565 2.247-15.19 8.42-15.246 17.266-0.043 6.329 5.845 13.113 15.758 18.133L466.176 805.262c11.207 5.703 26.766 8.96 42.71 8.96m0 28.445c-20.566 0-40.306-4.281-55.581-12.032l-290.418-147.47c-20.01-10.17-31.431-26.084-31.317-43.677 0.114-17.408 11.463-32.939 31.146-42.61l287.389-141.426c14.407-7.096 33.067-10.993 52.551-10.993 20.565 0 40.306 4.28 55.58 12.032l290.432 147.47c20.011 10.169 31.417 26.083 31.304 43.676-0.114 17.394-11.464 32.939-31.133 42.61L561.436 831.673c-14.407 7.083-33.066 10.994-52.55 10.994zM145.208 522.61c5.56 0 11.747-1.65 18.29-4.836L420.907 382.72c22.755-11.221 38.03-35.072 38.03-50.29v-363.164c0-9.7-5.973-15.488-15.986-15.488-5.56 0-11.762 1.65-18.29 4.821L167.253 93.65300000000002c-22.755 11.236-38.03 35.072-38.03 50.29V507.136c0.014 9.685 5.988 15.474 15.986 15.474m0 28.444c-25.728 0-44.416-18.474-44.416-43.932v-363.179c0-28.103 23.14-60.63 53.888-75.804l256.782-134.742 0.626-0.313c10.567-5.148 20.95-7.765 30.876-7.765 25.743 0 44.416 18.475 44.43 43.918V332.42999999999995c0 28.103-23.153 60.63-53.887 75.805L176.725 542.976l-0.64 0.313c-10.567 5.148-20.949 7.765-30.876 7.765z m733.582-28.43c9.998 0 15.972-5.788 15.972-15.488v-363.179c0-15.217-15.29-39.068-38.656-50.617l-257.01-134.855c-6.514-3.129-12.587-4.721-18.048-4.721-10.013 0-15.986 5.788-15.986 15.473V332.42999999999995c0 15.232 15.275 39.069 38.656 50.617l257.01 134.855c6.514 3.13 12.6 4.722 18.062 4.722m0 28.444c-9.927 0-20.323-2.616-30.876-7.78L590.507 408.236c-30.749-15.175-53.888-47.702-53.888-75.805v-363.178c0-25.444 18.688-43.919 44.43-43.919 9.927 0 20.31 2.617 30.876 7.766l257.408 135.054c30.749 15.175 53.888 47.701 53.888 75.804V507.136c-0.014 25.458-18.688 43.932-44.43 43.932z"  horiz-adv-x="1024" />

    
    <glyph glyph-name="shouye" unicode="&#58883;" d="M761.6-32.799999999999955H646.7c-11.6 0-21 9.4-21 21V302.5c0 11.4-14 18.4-26.9 18.4H429.3c-11.2 0-26.9-5.7-26.9-18.4v-314.3c0-11.6-9.4-21-21-21H266.5c-60.3 0-109.4 49.1-109.4 109.4V364c0 11.6 9.4 21 21 21s21-9.4 21-21v-287.4c0-37.2 30.2-67.4 67.4-67.4h93.9V302.5c0 33.9 30.3 60.4 68.9 60.4h169.5c38.6 0 68.9-26.5 68.9-60.4v-293.3h93.9c37.2 0 67.4 30.2 67.4 67.4V364c0 11.6 9.4 21 21 21s21-9.4 21-21v-287.4c0-60.3-49-109.4-109.4-109.4zM976 353.1c-5.4 0-10.7 2.1-14.8 6.2L553.9 766.6c-26.3 26.3-69.1 26.3-95.4 0L66.9 374.9c-8.2-8.2-21.5-8.2-29.7 0s-8.2 21.5 0 29.7L428.8 796.3c42.7 42.6 112.1 42.7 154.7 0L990.9 389c8.2-8.2 8.2-21.5 0-29.7-4.1-4.1-9.5-6.2-14.9-6.2z"  horiz-adv-x="1024" />

    
    <glyph glyph-name="pinpaituan" unicode="&#58970;" d="M780.9453125 695.1328125L243.0546875 695.1328125 90.125 478.921875l400.78125-442.96875c10.546875-15.8203125 31.640625-15.8203125 47.4609375 0L933.875 478.921875 780.9453125 695.1328125zM269.421875 457.828125l163.4765625-316.40625-279.4921875 316.40625L269.421875 457.828125zM527.8203125 494.7421875L527.8203125 658.21875l100.1953125 0c47.4609375-89.6484375 73.828125-137.109375 89.6484375-163.4765625L527.8203125 494.7421875zM717.6640625 457.828125l-189.84375-358.59375L527.8203125 457.828125 717.6640625 457.828125zM496.1796875 494.7421875L306.3359375 494.7421875l89.6484375 163.4765625 100.1953125 0L496.1796875 494.7421875zM496.1796875 457.828125l0-358.59375L306.3359375 457.828125 496.1796875 457.828125zM754.578125 457.828125l116.015625 0-279.4921875-316.40625L754.578125 457.828125zM875.8671875 494.7421875l-126.5625 0-5.2734375 10.546875c0 5.2734375-5.2734375 5.2734375-5.2734375 10.546875l-79.1015625 142.3828125 100.1953125 0L875.8671875 494.7421875zM258.875 658.21875l100.1953125 0C316.8828125 579.1171875 290.515625 536.9296875 279.96875 515.8359375L269.421875 494.7421875 148.1328125 494.7421875 258.875 658.21875z"  horiz-adv-x="1024" />

    
    <glyph glyph-name="gongsimingcheng" unicode="&#58898;" d="M512.660032 749.353059l408.005484 0c14.57188 0 21.85782-10.92891 21.85782-21.85782l0 0L942.523337 512.564098c0-10.92891-7.28594-18.21485-21.85782-18.21485l0 0L512.660032 494.349247 512.660032 534.421918l389.790634 0L902.450666 705.638441 512.660032 705.638441 512.660032 749.353059 512.660032 749.353059zM512.660032 28.057265l0 43.714617 131.144876 0L643.804908 355.919455 512.660032 355.919455l0 43.714617 153.001673 0c10.92891 0 21.85782-7.28594 21.85782-21.85782l0 0 0-306.004369 112.930025 0L800.449551 446.99166c0 10.92891 7.28594 21.85782 21.85782 21.85782 10.92891 0 18.21485-10.92891 18.21485-21.85782l0-397.076574c0-14.57188-7.28594-21.85782-18.21485-21.85782l0 0L512.660032 28.057265zM101.011578 749.353059 512.660032 749.353059l0-43.714617L122.869399 705.638441 122.869399 534.421918 512.660032 534.421918l0-40.071647L101.011578 494.350271c-10.92891 0-21.85782 7.28594-21.85782 18.21485L79.153758 727.495238C79.153758 738.424148 90.082668 749.353059 101.011578 749.353059L101.011578 749.353059zM512.660032 399.634072l0-43.714617L381.515157 355.919455l0-284.146549L512.660032 71.772906l0-43.714617L203.012693 28.058288c-10.92891 0-21.85782 7.28594-21.85782 21.85782l0 0L181.154873 446.99166c0 10.92891 10.92891 21.85782 21.85782 21.85782s21.85782-10.92891 21.85782-21.85782l0-375.219777 112.930025 0L337.800539 377.776252c0 14.57188 10.92891 21.85782 21.85782 21.85782L512.660032 399.634072z"  horiz-adv-x="1024" />

    
    <glyph glyph-name="xinwen" unicode="&#58896;" d="M142.49427102 30.332581600000026v507.64870761c0.57593847 1.15187695 1.48098477 2.13920041 1.6455391 3.37335453 5.59483208 39.41065366 33.15760593 63.43551948 72.73281307 63.43551947h183.80667921c-3.37335452 4.77206213-5.43027777 7.65175535-7.56947818 10.53144855-34.4740372 46.73330118-69.19490506 93.21977088-103.09300296 140.28217904-4.68978579 6.49987839-7.40492468 15.96172632-7.40492468 24.02486582 0 11.76560183 10.12006358 21.72111191 21.14517342 23.94258947 13.57569443 2.71513889 24.02486582-2.22147757 32.25255964-13.41114092C379.53412978 730.92070935 423.3054606 671.92814502 466.74768442 612.68874922c4.19612365-5.75938559 8.47452448-8.30997098 15.71489483-8.06313951 19.41735718 0.49366132 38.91699152 0.57593847 58.41662586 0 8.06314032-0.24683066 12.67064813 2.63286173 17.27815677 8.9681858C601.35275503 672.58636065 644.71270087 731.49664783 688.64858599 789.91327368c4.77206213 6.33532407 13.24658743 11.60104834 20.98061912 13.65797241 12.09470965 3.2088002 22.54388105-2.55058538 28.79692877-13.49341809 6.49987839-11.27194052 5.01889362-22.46160388-2.71513888-32.91077527-35.13225284-47.47379316-70.18222852-94.9475863-105.14992704-142.50365661-2.05692324-2.71513889-3.7847395-5.67710843-6.41760123-9.70867859 63.51779581 0 124.89639203 0.08227716 186.3572646 0 32.08800613-0.08227716 58.82801084-20.56923413 67.54936596-51.58764047 1.39870762-5.01889362 2.55058538-10.12006358 3.7847395-15.13895636v-507.64870844c-3.53790802-10.94283271-5.75938559-22.6261582-10.86055554-32.74622095-10.20234072-19.99329565-28.79692795-29.70197424-49.53071722-35.70819131H203.05009729c-2.13920041 0.82276913-4.19612365 1.72781543-6.33532407 2.38603107-27.23366684 8.22769382-44.42954645 26.08178906-51.34080898 53.72684088-1.15187695 3.7847395-1.97464691 7.98086316-2.87969322 12.09470966z m370.16394462 512.00938559h-242.7169672c-36.94234543 0-61.2140419-24.18942014-61.29631906-60.96721124v-328.36725989c0-37.10689893 24.60080429-61.87225754 61.78998038-61.87225754 161.18052182-0.08227716 322.27876648-0.08227716 483.45928829 0 37.18917608 0 61.78998038 24.84763495 61.78998038 61.87225754V480.30515616c0 38.09422238-23.94258865 61.9545347-62.28364251 61.95453388-80.30229126 0.08227716-160.52230618 0.08227716-240.74232029 0.08227715z m36.77779111-514.31313948c0.1645535 20.89834194-16.78449546 38.17649954-37.27145325 38.1764987-20.07557282 0-37.10689893-17.03132612-37.18917527-37.27145241-0.1645535-21.06289627 16.45538763-37.92966806 37.27145243-37.84739172 20.40468064 0.08227716 37.02462177 16.53766479 37.18917609 36.94234543z m-145.38334983 22.79071169c-12.42381747 0.08227716-22.21477322-9.62640143-22.21477322-22.13249689-0.08227716-12.50609463 9.62640143-22.37932754 21.96794257-22.46160388 12.17698682-0.08227716 22.29705038 10.03778641 22.46160388 22.21477323 0 12.17698682-9.95550925 22.29705038-22.21477323 22.37932754z m238.52084354-22.21477322c0 12.42381747-9.87323291 22.21477322-22.21477323 22.21477322-12.25926398 0-22.29705038-10.12006358-22.21477322-22.29705039 0.08227716-12.09470965 10.28461706-22.29705038 22.37932754-22.29705038 12.17698682 0 22.05021972 9.95550925 22.05021891 22.37932755zM637.63688482 382.88926162999996c-11.6833255-41.96123823-23.03754236-82.85287665-34.63859152-124.23817639-2.71513889-0.24683066-5.34800061-0.1645535-7.898586-0.65821564-7.7340325-1.39870762-11.27194052 1.72781543-13.16431027 9.37957076-4.19612365 16.45538763-9.37957077 32.66394461-14.97440203 51.75219399-6.41760123-21.96794257-12.09470965-41.05619192-17.77181892-60.55582627h-18.01864956c-11.43649402 40.89163843-22.87298887 82.03010752-34.6385907 123.90906857h30.03108206c4.44295432-18.18320306 8.88590946-36.03729913 13.24658744-53.89139438 0.57593847-0.1645535 1.15187695-0.24683066 1.64553826-0.41138498 3.53790802 12.58837179 7.07581687 25.09446643 10.61372488 37.68283823 5.01889362 17.93637241 5.01889362 17.93637241 25.09446643 16.53766396 4.93661646-17.93637241 9.95550925-36.11957547 15.797172-57.26474889 4.52523147 18.18320306 8.88590946 33.5689909 12.01243333 49.2016094 1.48098477 7.32264753 4.60750864 9.29729361 11.51877118 8.72135513 6.66443188-0.65821564 13.41114093-0.1645535 21.14517342-0.1645535zM359.86994113 382.56015381h29.78425223v-124.56728421c-8.88590946 0-17.52498742-0.49366132-26.08178989 0.24683065-2.71513889 0.24683066-6.25304691 3.29107736-7.56947818 6.00621626-9.54412509 18.75914153-18.6768652 37.76511457-29.45514358 56.60653325v-62.03681104H297.25719162V382.88926162999996c9.13274011 0 17.85409524 0.49366132 26.49317403-0.32910782 2.63286173-0.24683066 5.92393991-3.7847395 7.24037037-6.58215554 9.29729361-19.33508084 18.10092673-38.83471518 28.87920511-58.25207154v64.83422708zM703.62298887 348.82660857999997c-1.31643128 3.0442467-2.30375391 6.33532407-4.03157017 9.05046378-4.52523147 6.91126254-14.31618723 8.22769382-20.15784998 3.0442467-5.18344712-4.60750864-5.26572428-13.49341809 0.9050463-18.6768652 4.52523147-3.70246234 10.44917138-5.67710843 15.6326185-8.6390788 9.29729361-5.26572428 19.74646499-9.13274011 27.39822034-16.12627982 20.24012714-18.43003372 13.24658743-49.20160858-12.67064814-58.08751803-14.7275722-5.10116995-29.70197424-4.77206213-44.3472701 0.82276913-13.98707941 5.34800061-22.21477322 18.43003372-21.80338826 34.4740372h27.31594318c0.90504629-2.79741605 1.0695998-6.91126254 3.20880103-8.80363229 4.19612365-3.70246234 9.21501727-7.98086316 14.39846356-8.63907879 3.62018518-0.49366132 10.28461706 3.949293 11.27194052 7.48720184 1.31643128 4.52523147-0.08227716 11.51877117-3.0442467 15.30351068-3.70246234 4.68978579-10.12006358 7.32264753-15.63261768 10.36689422-7.89858599 4.44295432-16.37311047 7.81630883-23.86031232 12.75292529-11.76560183 7.7340325-16.53766479 19.25280368-14.06935656 33.07532877 2.22147757 12.50609463 10.20234072 21.06289627 22.13249688 25.17674359 16.86677261 5.84166275 33.73354441 5.67710843 49.44843925-3.620186 10.36689422-6.17077057 15.797172-15.87944916 16.29083413-28.79692795-9.70867859-0.1645535-19.00597302-0.1645535-28.38554378-0.16455432zM443.0519256 333.02943658000004h39.16382299v-20.40468063h-39.24609933v-34.55631354h45.49914625v-19.82874215c-19.66418783 0-39.41065366-0.90504629-58.99256434 0.41138498-9.70867859 0.65821564-16.53766479 8.72135513-16.70221829 18.75914154-0.49366132 34.80314502-0.1645535 69.60628921-0.16455431 104.82081922h74.21379866v-19.25280369h-43.77133164v-29.94880572z"  horiz-adv-x="1024" />

    
    <glyph glyph-name="zhaopingangwei" unicode="&#58949;" d="M515.55998037 345.26675739999996a226.54419741 226.54419741 0 1 0 0 453.08839481 226.54419741 226.54419741 0 0 0 0-453.08839481z m0 64.72691371a161.81728369 161.81728369 0 1 1 0 323.63456739 161.81728369 161.81728369 0 0 1 0-323.63456739zM871.55800518 53.99564628999997a32.36345629 32.36345629 0 0 0-64.72691369 0 291.27111111 291.27111111 0 0 1-582.54222223 0 32.36345629 32.36345629 0 0 0-64.72691371 0 356.06275187 356.06275187 0 0 0 711.99604966 0zM58.91160521 77.03842815999997m32.36345627 0l841.44987706 0q32.36345629 0 32.36345628-32.36345742l0 0q0-32.36345629-32.36345628-32.36345629l-841.44987706 0q-32.36345629 0-32.36345627 32.36345629l0 0q0 32.36345629 32.36345627 32.36345742ZM533.61878926 373.61714516999996a32.36345629 32.36345629 0 1 0 46.27974258-45.30883924l-55.47096405-56.76550259-55.53569224 56.76550259a32.36345629 32.36345629 0 0 0 46.27974372 45.30883924l9.25594852-9.4501285 9.19122147 9.3854026zM451.80396999 116.97493333l40.26014037 200.84761258h64.72691371l40.26014038-200.84761258-72.62359666-39.93650517z"  horiz-adv-x="1024" />

    
    <glyph glyph-name="guanbi" unicode="&#58934;" d="M843.741 658.658l-57.344 58.368-275.033-275.879L236.51 716.002l-57.344-58.368 274.432-274.432-274.432-275.456 57.344-58.368 275.032 275.88 274.856-274.856 57.344 58.368L569.31 383.202z"  horiz-adv-x="1024" />

    
    <glyph glyph-name="gouwuche" unicode="&#58880;" d="M825.3696 203.36l145.5104 332.8c3.456 7.9104 2.688 17.0496-2.048 24.2688s-12.8 11.5968-21.4272 11.5968L327.9616 572.0256l-22.4768 104.2176c-2.5344 11.776-12.9536 20.1984-25.0368 20.1984L76.8 696.4416c-14.1312 0-25.6-11.4688-25.6-25.6s11.4688-25.6 25.6-25.6l183.0144 0L376.32 104.9024c-41.5488-11.9808-72.2176-49.9456-72.2176-95.3088 0-54.9376 44.6976-99.6096 99.6096-99.6096s99.6096 44.6976 99.6096 99.6096c0 17.8432-5.0944 34.3552-13.3376 48.8448l198.2976 0c-8.2432-14.4896-13.3376-31.0016-13.3376-48.8448 0-54.9376 44.6976-99.6096 99.6096-99.6096s99.6096 44.6976 99.6096 99.6096-44.6976 99.6096-99.6096 99.6096c-2.176 0-4.1984-0.512-6.3232-0.64L427.2128 108.5632c-0.0768 1.152 0.2048 2.2528-0.0512 3.4304l-16.384 76.0064 391.1168 0C812.0832 188 821.2736 194.016 825.3696 203.36zM403.712-51.616c-33.7408 0-61.2096 27.4688-61.2096 61.2096s27.4688 61.2096 61.2096 61.2096 61.2096-27.4688 61.2096-61.2096S437.4528-51.616 403.712-51.616zM835.7632 9.5936c0-33.7408-27.4688-61.2096-61.2096-61.2096s-61.2096 27.4688-61.2096 61.2096 27.4688 61.2096 61.2096 61.2096S835.7632 43.3344 835.7632 9.5936zM404.5568 239.2l-64.9984 281.6 568.6784 0-123.1104-281.6L404.5568 239.2z"  horiz-adv-x="1024" />

    
    <glyph glyph-name="back_light" unicode="&#59360;" d="M352 768.00000001c8.533333 0 17.066667-2.133333 21.33333299-8.53333301l362.66666701-352c6.4-6.4 10.666667-14.933333 10.66666699-23.466667 0-8.533333-4.266667-17.066667-10.66666699-23.466667L371.19999999 8.53333299999997c-12.8-12.8-32-12.8-44.79999999 0s-12.8 32 0 44.8L667.733333 384l-339.2 328.533333c-12.8 12.8-12.8 32 0 44.8 6.4 8.533333 14.933333 10.666667 23.466667 10.66666701z"  horiz-adv-x="1024" />

    
    <glyph glyph-name="fanhuijiantou" unicode="&#58906;" d="M353.25371068 405.24140601l340.01015625-340.01279273c13.415625-13.415625 13.415625-35.15800807 0-48.57363306-13.415625-13.415625-35.15537084-13.415625-48.57099584 0L304.68007838 356.67041016999997c-13.415625 13.415625-13.415625 35.15537084 0 48.57099582 13.415625 13.415625 35.15537084 13.415625 48.5736323 0zM693.26386693 700.132031L353.25371068 360.11923828c-13.415625-13.415625-35.15800807-13.415625-48.5736323 0-13.415625 13.415625-13.415625 35.15537084 0 48.57099584L644.69287109 748.7030276099999c13.415625 13.415625 35.15537084 13.415625 48.57099584-2e-8 13.415625-13.415625 13.415625-35.15537084 0-48.57099659z"  horiz-adv-x="1024" />

    
    <glyph glyph-name="xinfeng1" unicode="&#59021;" d="M947.82611 734.007559 72.349795 734.007559c-35.033911 0-63.535035-28.502148-63.535035-63.535035l0-569.738006c0-35.033911 28.502148-63.535035 63.535035-63.535035l5.91471 0c7.711636-0.728594 16.907065-1.080611 28.102035-1.080611 8.53949 0 16.954137 0.194428 25.091468 0.38067l0.366344 0.008186c6.809079 0.159636 13.240559 0.312108 18.618033 0.312108l737.478358 0c0.599657-0.005117 3.514033-0.127913 4.761444-0.181125 5.957689-0.24764 15.928784-0.662079 26.63666-0.667196l0.00921 0c11.012821 0 20.074198 0.401136 27.689642 1.227967l0.807389 0c35.036981 0 63.540152 28.502148 63.540152 63.536059L1011.365238 670.470477C1011.362168 705.504388 982.857974 734.007559 947.82611 734.007559zM963.131701 660.358165l0-548.488029L653.003408 383.87004 963.131701 660.358165zM523.274788 332.83162l-0.917906-0.86981c-2.131547-2.130524-4.821819-3.564175-7.782244-4.145413-0.466628-0.091074-0.969071-0.163729-1.493004-0.213871-0.524956-0.051165-1.042749-0.076748-1.543146-0.076748-4.115738 0-7.960299 1.576915-10.82351 4.433986l-0.558725 0.558725L97.859795 685.334c0.228197-0.005117 0.459464-0.00921 0.692778-0.016373 5.186116-0.12996 9.939373-0.352017 13.088086-0.49835l0.141216-0.00614c3.059686-0.14224 5.082762-0.234337 6.658653-0.234337l777.2512 0c6.928806 0 14.233166 0.217964 21.296025 0.428765l1.357927 0.038886L523.274788 332.83162zM398.956388 357.116723l68.276013-59.879786c2.946099-2.864234 6.169513-5.446036 9.574053-7.66661 9.302877-6.086625 20.152992-9.606799 31.386848-10.18292 1.209548-0.062422 2.300392-0.091074 3.337002-0.091074 15.616676 0 30.595832 5.671163 42.192961 15.978926 0.336668 0.301875 0.669242 0.61603 0.99977 0.930185l0.667196 0.627287c0.169869 0.157589 0.339738 0.316202 0.508583 0.476861l60.82839 54.227042 303.427684-266.109754L97.245811 85.426881 398.956388 357.116723zM362.442776 389.140067 57.045227 114.129596 57.045227 656.977161 362.442776 389.140067z"  horiz-adv-x="1027" />

    
    <glyph glyph-name="sousuo" unicode="&#58889;" d="M878.790676 112.463246l-192.010417 192.010417c75.010943 116.999474 61.506698 274.730133-40.676621 376.913253-117.874281 117.874281-309.611284 117.874281-427.485565 0s-117.874281-309.611284 0-427.485565c102.18312-102.18312 259.968541-115.742127 376.913253-40.676621l192.06518-192.06498c22.415802-22.415802 58.718589-22.415802 81.079628 0l10.169105 10.169105C901.261041 53.690094 901.261041 89.992681 878.790676 112.463246zM284.498806 319.836647c-81.516932 81.516932-81.516932 214.152804 0 295.724499 81.462369 81.516932 214.152804 81.516932 295.669736 0 81.462169-81.516932 81.462169-214.152804 0-295.615173C498.706373 238.319715 366.015737 238.319715 284.498806 319.836647z"  horiz-adv-x="1024" />

    
    <glyph glyph-name="102fangxiang_xiangxia" unicode="&#59037;" d="M878.592 645.12q29.696 0 48.128-11.264t24.576-29.696 0-41.472-26.624-45.568q-82.944-92.16-159.744-180.224t-148.48-164.864q-19.456-20.48-45.568-31.744t-53.76-11.776-53.248 8.704-43.008 28.672Q380.928 209.92 337.92 256l-88.064 92.16q-43.008 46.08-85.504 90.624t-79.36 86.528q-17.408 19.456-22.528 40.448t1.024 38.4 23.552 28.672 45.056 11.264q35.84 0 98.816 0.512t137.728 0.512h509.952z"  horiz-adv-x="1024" />

    


  </font>
</defs>
</svg>
